<svg xmlns="http://www.w3.org/2000/svg" width="32.000000pt" height="32.000000pt" viewBox="0 0 32.000000 32.000000" preserveAspectRatio="xMidYMid meet"><g transform="translate(0.000000,32.000000) scale(0.100000,-0.100000)" fill="#000000" stroke="none"><path d="M0 245 c0 -72 1 -75 20 -63 16 10 22 10 35 -3 14 -14 14 -17 -5 -34 -16 -14 -22 -15 -35 -5 -13 11 -15 3 -15 -64 l0 -76 160 0 160 0 0 160 0 160 -160 0 -160 0 0 -75z m208 22 l43 -43 -22 -20 c-21 -19 -21 -19 -44 9 -30 33 -32 33 -67 0 -27 -25 -29 -26 -45 -10 -16 16 -15 20 27 62 24 25 49 45 55 45 6 0 30 -19 53 -43z m-28 -92 c11 -13 10 -18 -6 -30 -24 -18 -29 -18 -44 0 -10 12 -10 18 0 30 16 19 34 19 50 0z m117 -1 c3 -8 -2 -23 -11 -32 -15 -15 -17 -15 -33 0 -13 14 -14 20 -3 32 16 20 39 20 47 0z m-171 -71 l22 -28 31 29 c30 29 61 30 61 3 0 -18 -68 -97 -84 -97 -6 0 -32 20 -56 45 -37 37 -41 46 -30 60 18 22 31 19 56 -12z"></path></g></svg>